<svg width="40" height="40" viewBox="0 0 40 40" fill="none" xmlns="http://www.w3.org/2000/svg">
<path fill-rule="evenodd" clip-rule="evenodd" d="M20 20.0043C15.588 20.0043 12 16.4171 12 12.0061C12 7.595 15.588 4.00778 20 4.00778C24.412 4.00778 28 7.595 28 12.0061C28 16.4171 24.412 20.0043 20 20.0043ZM27.516 21.35C28.9163 20.2283 30.0464 18.8062 30.8226 17.1888C31.5987 15.5713 32.0011 13.8 32 12.0061C32.0015 9.97758 31.4885 7.98197 30.509 6.20555C29.5295 4.42912 28.1155 2.92979 26.3991 1.84809C24.6828 0.766388 22.7201 0.137533 20.6946 0.0201163C18.6691 -0.0973008 16.6469 0.30072 14.817 1.17685C12.9871 2.05298 11.4093 3.37868 10.231 5.03002C9.05274 6.68136 8.31244 8.60434 8.07941 10.6194C7.84637 12.6344 8.12816 14.6756 8.89844 16.5522C9.66872 18.4288 10.9024 20.0795 12.484 21.35C5.16601 24.0994 0 30.892 0 40H4C4 30.0022 11.178 24.0035 20 24.0035C28.822 24.0035 36 30.0022 36 40H40C40 30.892 34.834 24.0994 27.516 21.35Z" fill="black"/>
</svg>
